# xmcd CD database file
#
# Track frame offsets:
#	187
#	20630
#	36517
#	50567
#	82372
#	94105
#	117380
#	139500
#	154745
#	178267
#	193770
#	206997
#	225550
#	241660
#	279747
#	294575
#
# Disc length: 4077 seconds
#
# Revision: 4
# Processed by: cddbd v1.5.2PL0 Copyright (c) Steve Scherf et al.
# Submitted via: CDex 1.51
#
DISCID=f40feb10
DTITLE=B.B. King - Best One
DYEAR=1991
DGENRE=Blues
TTITLE0=Hummingbird
TTITLE1=Ain't Nobody Home
TTITLE2=Ask Me No Questions
TTITLE3=Sweet Sixteen
TTITLE4=Never Trust A Woman
TTITLE5=Don't Answer The Door
TTITLE6=Chains And Things
TTITLE7=Philadelphia
TTITLE8=Ghetto Woman
TTITLE9=Help The Poor
TTITLE10=I Got Some Help I Don't Need
TTITLE11=Guess Who
TTITLE12=Who Are You
TTITLE13=To Know You Is To Love You
TTITLE14=I Like To Live The Love
TTITLE15=How Blue Can You Get
EXTD=YEAR: 1991
EXTT0=
EXTT1=
EXTT2=
EXTT3=
EXTT4=
EXTT5=
EXTT6=
EXTT7=
EXTT8=
EXTT9=
EXTT10=
EXTT11=
EXTT12=
EXTT13=
EXTT14=
EXTT15=
PLAYORDER=
